<svg xmlns="http://www.w3.org/2000/svg" xmlns:xlink="http://www.w3.org/1999/xlink" width="500" zoomAndPan="magnify" viewBox="0 0 375 374.999991" height="500" preserveAspectRatio="xMidYMid meet" version="1.0"><defs><g/></defs><g fill="#1b1801" fill-opacity="1"><g transform="translate(0.0000045, 182.743454)"><g><path d="M 10.65625 0 C 8.738281 0 7.175781 -0.578125 5.96875 -1.734375 C 4.757812 -2.898438 4.15625 -4.421875 4.15625 -6.296875 L 4.15625 -46.921875 L 27.484375 -46.921875 C 31.722656 -46.921875 35.128906 -45.914062 37.703125 -43.90625 C 40.273438 -41.894531 41.5625 -39.191406 41.5625 -35.796875 L 41.5625 -32.4375 C 41.5625 -30.96875 41.191406 -29.5625 40.453125 -28.21875 C 39.710938 -26.875 38.675781 -25.78125 37.34375 -24.9375 L 37.34375 -24.875 C 39.476562 -24.113281 41.207031 -22.882812 42.53125 -21.1875 C 43.851562 -19.488281 44.515625 -17.585938 44.515625 -15.484375 L 44.515625 -12 C 44.515625 -8.332031 43.179688 -5.414062 40.515625 -3.25 C 37.859375 -1.082031 34.273438 0 29.765625 0 Z M 27.484375 -27.484375 C 28.910156 -27.484375 30.070312 -27.941406 30.96875 -28.859375 C 31.863281 -29.773438 32.3125 -30.992188 32.3125 -32.515625 L 32.3125 -34.796875 C 32.3125 -36.046875 31.84375 -37.035156 30.90625 -37.765625 C 29.96875 -38.503906 28.710938 -38.875 27.140625 -38.875 L 13.40625 -38.875 L 13.40625 -27.484375 Z M 29.09375 -8.046875 C 31.0625 -8.046875 32.582031 -8.4375 33.65625 -9.21875 C 34.726562 -10 35.265625 -11.101562 35.265625 -12.53125 L 35.265625 -15.484375 C 35.265625 -16.773438 34.789062 -17.820312 33.84375 -18.625 C 32.90625 -19.4375 31.65625 -19.84375 30.09375 -19.84375 L 13.40625 -19.84375 L 13.40625 -8.046875 Z M 29.09375 -8.046875 "/></g></g></g><g fill="#1b1801" fill-opacity="1"><g transform="translate(46.250706, 182.743454)"><g><path d="M 4.15625 -46.921875 L 29.09375 -46.921875 C 33.15625 -46.921875 36.425781 -45.828125 38.90625 -43.640625 C 41.382812 -41.453125 42.625 -38.566406 42.625 -34.984375 L 42.625 -30.296875 C 42.625 -27.972656 41.960938 -25.953125 40.640625 -24.234375 C 39.328125 -22.515625 37.421875 -21.207031 34.921875 -20.3125 L 34.921875 -20.171875 C 36.347656 -19.234375 37.429688 -18.160156 38.171875 -16.953125 C 38.910156 -15.753906 39.640625 -14.082031 40.359375 -11.9375 L 44.109375 0 L 34.515625 0 L 30.96875 -11.125 C 30.382812 -13.050781 29.578125 -14.484375 28.546875 -15.421875 C 27.523438 -16.359375 26.253906 -16.828125 24.734375 -16.828125 L 13.40625 -16.828125 L 13.40625 0 L 4.15625 0 Z M 27.34375 -24.796875 C 29.21875 -24.796875 30.691406 -25.296875 31.765625 -26.296875 C 32.835938 -27.304688 33.375 -28.617188 33.375 -30.234375 L 33.375 -34.59375 C 33.375 -35.882812 32.972656 -36.921875 32.171875 -37.703125 C 31.367188 -38.484375 30.296875 -38.875 28.953125 -38.875 L 13.40625 -38.875 L 13.40625 -24.796875 Z M 27.34375 -24.796875 "/></g></g></g><g fill="#1b1801" fill-opacity="1"><g transform="translate(91.428926, 182.743454)"><g><path d="M 20.71875 0.53125 C 17.1875 0.53125 14.066406 -0.210938 11.359375 -1.703125 C 8.660156 -3.203125 6.5625 -5.300781 5.0625 -8 C 3.5625 -10.707031 2.8125 -13.847656 2.8125 -17.421875 L 2.8125 -29.5 C 2.8125 -33.070312 3.5625 -36.207031 5.0625 -38.90625 C 6.5625 -41.613281 8.660156 -43.710938 11.359375 -45.203125 C 14.066406 -46.703125 17.1875 -47.453125 20.71875 -47.453125 L 27.8125 -47.453125 C 31.34375 -47.453125 34.457031 -46.703125 37.15625 -45.203125 C 39.863281 -43.710938 41.96875 -41.613281 43.46875 -38.90625 C 44.96875 -36.207031 45.71875 -33.070312 45.71875 -29.5 L 45.71875 -17.421875 C 45.71875 -13.847656 44.96875 -10.707031 43.46875 -8 C 41.96875 -5.300781 39.863281 -3.203125 37.15625 -1.703125 C 34.457031 -0.210938 31.34375 0.53125 27.8125 0.53125 Z M 27.8125 -7.640625 C 30.40625 -7.640625 32.492188 -8.578125 34.078125 -10.453125 C 35.671875 -12.328125 36.46875 -14.785156 36.46875 -17.828125 L 36.46875 -29.09375 C 36.46875 -32.132812 35.671875 -34.59375 34.078125 -36.46875 C 32.492188 -38.34375 30.40625 -39.28125 27.8125 -39.28125 L 20.71875 -39.28125 C 18.125 -39.28125 16.03125 -38.34375 14.4375 -36.46875 C 12.851562 -34.59375 12.0625 -32.132812 12.0625 -29.09375 L 12.0625 -17.828125 C 12.0625 -14.785156 12.851562 -12.328125 14.4375 -10.453125 C 16.03125 -8.578125 18.125 -7.640625 20.71875 -7.640625 Z M 27.8125 -7.640625 "/></g></g></g><g fill="#1b1801" fill-opacity="1"><g transform="translate(137.813689, 182.743454)"><g><path d="M 15.6875 -38.875 L 0.796875 -38.875 L 0.796875 -46.921875 L 39.8125 -46.921875 L 39.8125 -38.875 L 24.9375 -38.875 L 24.9375 0 L 15.6875 0 Z M 15.6875 -38.875 "/></g></g></g><g fill="#1b1801" fill-opacity="1"><g transform="translate(178.433864, 182.743454)"><g><path d="M 4.15625 -46.921875 L 13.40625 -46.921875 L 13.40625 -27.546875 L 35.265625 -27.546875 L 35.265625 -46.921875 L 44.515625 -46.921875 L 44.515625 0 L 35.265625 0 L 35.265625 -19.5 L 13.40625 -19.5 L 13.40625 0 L 4.15625 0 Z M 4.15625 -46.921875 "/></g></g></g><g fill="#1b1801" fill-opacity="1"><g transform="translate(227.097651, 182.743454)"><g><path d="M 10.65625 0 C 8.738281 0 7.175781 -0.578125 5.96875 -1.734375 C 4.757812 -2.898438 4.15625 -4.421875 4.15625 -6.296875 L 4.15625 -46.921875 L 39.953125 -46.921875 L 39.953125 -38.875 L 13.40625 -38.875 L 13.40625 -28.015625 L 37.9375 -28.015625 L 37.9375 -19.96875 L 13.40625 -19.96875 L 13.40625 -8.046875 L 39.953125 -8.046875 L 39.953125 0 Z M 10.65625 0 "/></g></g></g><g fill="#1b1801" fill-opacity="1"><g transform="translate(269.192495, 182.743454)"><g><path d="M 4.15625 -46.921875 L 29.09375 -46.921875 C 33.15625 -46.921875 36.425781 -45.828125 38.90625 -43.640625 C 41.382812 -41.453125 42.625 -38.566406 42.625 -34.984375 L 42.625 -30.296875 C 42.625 -27.972656 41.960938 -25.953125 40.640625 -24.234375 C 39.328125 -22.515625 37.421875 -21.207031 34.921875 -20.3125 L 34.921875 -20.171875 C 36.347656 -19.234375 37.429688 -18.160156 38.171875 -16.953125 C 38.910156 -15.753906 39.640625 -14.082031 40.359375 -11.9375 L 44.109375 0 L 34.515625 0 L 30.96875 -11.125 C 30.382812 -13.050781 29.578125 -14.484375 28.546875 -15.421875 C 27.523438 -16.359375 26.253906 -16.828125 24.734375 -16.828125 L 13.40625 -16.828125 L 13.40625 0 L 4.15625 0 Z M 27.34375 -24.796875 C 29.21875 -24.796875 30.691406 -25.296875 31.765625 -26.296875 C 32.835938 -27.304688 33.375 -28.617188 33.375 -30.234375 L 33.375 -34.59375 C 33.375 -35.882812 32.972656 -36.921875 32.171875 -37.703125 C 31.367188 -38.484375 30.296875 -38.875 28.953125 -38.875 L 13.40625 -38.875 L 13.40625 -24.796875 Z M 27.34375 -24.796875 "/></g></g></g><g fill="#1b1801" fill-opacity="1"><g transform="translate(314.638842, 182.743454)"><g><path d="M 18.234375 0.53125 C 13.316406 0.53125 9.472656 -0.835938 6.703125 -3.578125 C 3.929688 -6.328125 2.546875 -10.160156 2.546875 -15.078125 L 11.65625 -15.078125 C 11.65625 -12.753906 12.25 -10.929688 13.4375 -9.609375 C 14.625 -8.296875 16.265625 -7.640625 18.359375 -7.640625 L 25.8125 -7.640625 C 27.769531 -7.640625 29.363281 -8.050781 30.59375 -8.875 C 31.820312 -9.707031 32.4375 -10.816406 32.4375 -12.203125 L 32.4375 -14.484375 C 32.4375 -16.671875 30.828125 -18.03125 27.609375 -18.5625 L 15.28125 -20.640625 C 11.257812 -21.316406 8.207031 -22.601562 6.125 -24.5 C 4.050781 -26.394531 3.015625 -28.816406 3.015625 -31.765625 L 3.015625 -35.53125 C 3.015625 -37.894531 3.648438 -39.984375 4.921875 -41.796875 C 6.203125 -43.609375 8.015625 -45.003906 10.359375 -45.984375 C 12.703125 -46.960938 15.414062 -47.453125 18.5 -47.453125 L 26.078125 -47.453125 C 28.984375 -47.453125 31.550781 -46.847656 33.78125 -45.640625 C 36.019531 -44.441406 37.753906 -42.757812 38.984375 -40.59375 C 40.210938 -38.425781 40.828125 -35.910156 40.828125 -33.046875 L 31.703125 -33.046875 C 31.703125 -34.921875 31.1875 -36.425781 30.15625 -37.5625 C 29.132812 -38.707031 27.773438 -39.28125 26.078125 -39.28125 L 18.5 -39.28125 C 16.625 -39.28125 15.113281 -38.875 13.96875 -38.0625 C 12.832031 -37.257812 12.265625 -36.191406 12.265625 -34.859375 L 12.265625 -33.046875 C 12.265625 -30.804688 13.804688 -29.421875 16.890625 -28.890625 L 29.15625 -26.75 C 33.226562 -26.03125 36.332031 -24.765625 38.46875 -22.953125 C 40.613281 -21.148438 41.6875 -18.816406 41.6875 -15.953125 L 41.6875 -11.53125 C 41.6875 -9.164062 41.023438 -7.066406 39.703125 -5.234375 C 38.390625 -3.398438 36.550781 -1.976562 34.1875 -0.96875 C 31.820312 0.03125 29.070312 0.53125 25.9375 0.53125 Z M 18.234375 0.53125 "/></g></g></g><g fill="#1b1801" fill-opacity="1"><g transform="translate(0.0000045, 241.523641)"><g><path d="M 36.46875 0 L 32.640625 -4.15625 C 30.898438 -2.632812 28.96875 -1.472656 26.84375 -0.671875 C 24.71875 0.128906 22.492188 0.53125 20.171875 0.53125 L 17.5 0.53125 C 12.800781 0.53125 9.132812 -0.515625 6.5 -2.609375 C 3.863281 -4.710938 2.546875 -7.617188 2.546875 -11.328125 L 2.546875 -13.734375 C 2.546875 -15.835938 2.96875 -17.613281 3.8125 -19.0625 C 4.664062 -20.519531 5.695312 -21.695312 6.90625 -22.59375 C 8.113281 -23.488281 10.015625 -24.71875 12.609375 -26.28125 L 11.9375 -27.078125 C 9.613281 -29.847656 8.453125 -32.550781 8.453125 -35.1875 L 8.453125 -36.671875 C 8.453125 -39.929688 9.613281 -42.539062 11.9375 -44.5 C 14.257812 -46.46875 17.316406 -47.453125 21.109375 -47.453125 L 23.65625 -47.453125 C 27.238281 -47.453125 30.113281 -46.476562 32.28125 -44.53125 C 34.445312 -42.59375 35.53125 -40.035156 35.53125 -36.859375 L 35.53125 -35.53125 C 35.53125 -34.144531 35.21875 -32.898438 34.59375 -31.796875 C 33.96875 -30.703125 32.972656 -29.609375 31.609375 -28.515625 C 30.242188 -27.421875 28.285156 -26.09375 25.734375 -24.53125 L 24.53125 -23.796875 L 31.765625 -15.890625 C 32.710938 -18.078125 33.273438 -20.351562 33.453125 -22.71875 L 41.21875 -22.71875 C 40.957031 -18.03125 39.6875 -13.71875 37.40625 -9.78125 L 46.390625 0 Z M 16.890625 -35.1875 C 16.890625 -33.800781 17.628906 -32.238281 19.109375 -30.5 L 20.375 -28.953125 L 21.453125 -29.6875 C 23.859375 -31.382812 25.394531 -32.546875 26.0625 -33.171875 C 26.738281 -33.804688 27.078125 -34.59375 27.078125 -35.53125 L 27.078125 -36.859375 C 27.078125 -37.890625 26.738281 -38.707031 26.0625 -39.3125 C 25.394531 -39.914062 24.503906 -40.21875 23.390625 -40.21875 L 21.046875 -40.21875 C 19.835938 -40.21875 18.84375 -39.878906 18.0625 -39.203125 C 17.28125 -38.535156 16.890625 -37.644531 16.890625 -36.53125 Z M 20.3125 -7.109375 C 23.039062 -7.109375 25.429688 -8 27.484375 -9.78125 L 17.5625 -20.640625 C 15.144531 -19.253906 13.535156 -18.125 12.734375 -17.25 C 11.929688 -16.382812 11.53125 -15.257812 11.53125 -13.875 L 11.53125 -11.59375 C 11.53125 -10.25 12.066406 -9.164062 13.140625 -8.34375 C 14.210938 -7.519531 15.617188 -7.109375 17.359375 -7.109375 Z M 20.3125 -7.109375 "/></g></g></g><g fill="#1b1801" fill-opacity="1"><g transform="translate(50.74173, 241.523641)"><g><path d="M 18.234375 0.53125 C 13.316406 0.53125 9.472656 -0.835938 6.703125 -3.578125 C 3.929688 -6.328125 2.546875 -10.160156 2.546875 -15.078125 L 11.65625 -15.078125 C 11.65625 -12.753906 12.25 -10.929688 13.4375 -9.609375 C 14.625 -8.296875 16.265625 -7.640625 18.359375 -7.640625 L 25.8125 -7.640625 C 27.769531 -7.640625 29.363281 -8.050781 30.59375 -8.875 C 31.820312 -9.707031 32.4375 -10.816406 32.4375 -12.203125 L 32.4375 -14.484375 C 32.4375 -16.671875 30.828125 -18.03125 27.609375 -18.5625 L 15.28125 -20.640625 C 11.257812 -21.316406 8.207031 -22.601562 6.125 -24.5 C 4.050781 -26.394531 3.015625 -28.816406 3.015625 -31.765625 L 3.015625 -35.53125 C 3.015625 -37.894531 3.648438 -39.984375 4.921875 -41.796875 C 6.203125 -43.609375 8.015625 -45.003906 10.359375 -45.984375 C 12.703125 -46.960938 15.414062 -47.453125 18.5 -47.453125 L 26.078125 -47.453125 C 28.984375 -47.453125 31.550781 -46.847656 33.78125 -45.640625 C 36.019531 -44.441406 37.753906 -42.757812 38.984375 -40.59375 C 40.210938 -38.425781 40.828125 -35.910156 40.828125 -33.046875 L 31.703125 -33.046875 C 31.703125 -34.921875 31.1875 -36.425781 30.15625 -37.5625 C 29.132812 -38.707031 27.773438 -39.28125 26.078125 -39.28125 L 18.5 -39.28125 C 16.625 -39.28125 15.113281 -38.875 13.96875 -38.0625 C 12.832031 -37.257812 12.265625 -36.191406 12.265625 -34.859375 L 12.265625 -33.046875 C 12.265625 -30.804688 13.804688 -29.421875 16.890625 -28.890625 L 29.15625 -26.75 C 33.226562 -26.03125 36.332031 -24.765625 38.46875 -22.953125 C 40.613281 -21.148438 41.6875 -18.816406 41.6875 -15.953125 L 41.6875 -11.53125 C 41.6875 -9.164062 41.023438 -7.066406 39.703125 -5.234375 C 38.390625 -3.398438 36.550781 -1.976562 34.1875 -0.96875 C 31.820312 0.03125 29.070312 0.53125 25.9375 0.53125 Z M 18.234375 0.53125 "/></g></g></g><g fill="#1b1801" fill-opacity="1"><g transform="translate(98.802243, 241.523641)"><g><path d="M 4.828125 -46.921875 L 14.078125 -46.921875 L 14.078125 0 L 4.828125 0 Z M 4.828125 -46.921875 "/></g></g></g><g fill="#1b1801" fill-opacity="1"><g transform="translate(121.793524, 241.523641)"><g><path d="M 18.234375 0.53125 C 13.316406 0.53125 9.472656 -0.835938 6.703125 -3.578125 C 3.929688 -6.328125 2.546875 -10.160156 2.546875 -15.078125 L 11.65625 -15.078125 C 11.65625 -12.753906 12.25 -10.929688 13.4375 -9.609375 C 14.625 -8.296875 16.265625 -7.640625 18.359375 -7.640625 L 25.8125 -7.640625 C 27.769531 -7.640625 29.363281 -8.050781 30.59375 -8.875 C 31.820312 -9.707031 32.4375 -10.816406 32.4375 -12.203125 L 32.4375 -14.484375 C 32.4375 -16.671875 30.828125 -18.03125 27.609375 -18.5625 L 15.28125 -20.640625 C 11.257812 -21.316406 8.207031 -22.601562 6.125 -24.5 C 4.050781 -26.394531 3.015625 -28.816406 3.015625 -31.765625 L 3.015625 -35.53125 C 3.015625 -37.894531 3.648438 -39.984375 4.921875 -41.796875 C 6.203125 -43.609375 8.015625 -45.003906 10.359375 -45.984375 C 12.703125 -46.960938 15.414062 -47.453125 18.5 -47.453125 L 26.078125 -47.453125 C 28.984375 -47.453125 31.550781 -46.847656 33.78125 -45.640625 C 36.019531 -44.441406 37.753906 -42.757812 38.984375 -40.59375 C 40.210938 -38.425781 40.828125 -35.910156 40.828125 -33.046875 L 31.703125 -33.046875 C 31.703125 -34.921875 31.1875 -36.425781 30.15625 -37.5625 C 29.132812 -38.707031 27.773438 -39.28125 26.078125 -39.28125 L 18.5 -39.28125 C 16.625 -39.28125 15.113281 -38.875 13.96875 -38.0625 C 12.832031 -37.257812 12.265625 -36.191406 12.265625 -34.859375 L 12.265625 -33.046875 C 12.265625 -30.804688 13.804688 -29.421875 16.890625 -28.890625 L 29.15625 -26.75 C 33.226562 -26.03125 36.332031 -24.765625 38.46875 -22.953125 C 40.613281 -21.148438 41.6875 -18.816406 41.6875 -15.953125 L 41.6875 -11.53125 C 41.6875 -9.164062 41.023438 -7.066406 39.703125 -5.234375 C 38.390625 -3.398438 36.550781 -1.976562 34.1875 -0.96875 C 31.820312 0.03125 29.070312 0.53125 25.9375 0.53125 Z M 18.234375 0.53125 "/></g></g></g><g fill="#1b1801" fill-opacity="1"><g transform="translate(168.781559, 241.523641)"><g><path d="M 15.6875 -38.875 L 0.796875 -38.875 L 0.796875 -46.921875 L 39.8125 -46.921875 L 39.8125 -38.875 L 24.9375 -38.875 L 24.9375 0 L 15.6875 0 Z M 15.6875 -38.875 "/></g></g></g><g fill="#1b1801" fill-opacity="1"><g transform="translate(213.490571, 241.523641)"><g><path d="M 10.65625 0 C 8.738281 0 7.175781 -0.578125 5.96875 -1.734375 C 4.757812 -2.898438 4.15625 -4.421875 4.15625 -6.296875 L 4.15625 -46.921875 L 39.953125 -46.921875 L 39.953125 -38.875 L 13.40625 -38.875 L 13.40625 -28.015625 L 37.9375 -28.015625 L 37.9375 -19.96875 L 13.40625 -19.96875 L 13.40625 -8.046875 L 39.953125 -8.046875 L 39.953125 0 Z M 10.65625 0 "/></g></g></g><g fill="#1b1801" fill-opacity="1"><g transform="translate(259.67424, 241.523641)"><g><path d="M 4.15625 -46.921875 L 29.09375 -46.921875 C 33.15625 -46.921875 36.425781 -45.828125 38.90625 -43.640625 C 41.382812 -41.453125 42.625 -38.566406 42.625 -34.984375 L 42.625 -30.296875 C 42.625 -27.972656 41.960938 -25.953125 40.640625 -24.234375 C 39.328125 -22.515625 37.421875 -21.207031 34.921875 -20.3125 L 34.921875 -20.171875 C 36.347656 -19.234375 37.429688 -18.160156 38.171875 -16.953125 C 38.910156 -15.753906 39.640625 -14.082031 40.359375 -11.9375 L 44.109375 0 L 34.515625 0 L 30.96875 -11.125 C 30.382812 -13.050781 29.578125 -14.484375 28.546875 -15.421875 C 27.523438 -16.359375 26.253906 -16.828125 24.734375 -16.828125 L 13.40625 -16.828125 L 13.40625 0 L 4.15625 0 Z M 27.34375 -24.796875 C 29.21875 -24.796875 30.691406 -25.296875 31.765625 -26.296875 C 32.835938 -27.304688 33.375 -28.617188 33.375 -30.234375 L 33.375 -34.59375 C 33.375 -35.882812 32.972656 -36.921875 32.171875 -37.703125 C 31.367188 -38.484375 30.296875 -38.875 28.953125 -38.875 L 13.40625 -38.875 L 13.40625 -24.796875 Z M 27.34375 -24.796875 "/></g></g></g><g fill="#1b1801" fill-opacity="1"><g transform="translate(309.209425, 241.523641)"><g><path d="M 18.234375 0.53125 C 13.316406 0.53125 9.472656 -0.835938 6.703125 -3.578125 C 3.929688 -6.328125 2.546875 -10.160156 2.546875 -15.078125 L 11.65625 -15.078125 C 11.65625 -12.753906 12.25 -10.929688 13.4375 -9.609375 C 14.625 -8.296875 16.265625 -7.640625 18.359375 -7.640625 L 25.8125 -7.640625 C 27.769531 -7.640625 29.363281 -8.050781 30.59375 -8.875 C 31.820312 -9.707031 32.4375 -10.816406 32.4375 -12.203125 L 32.4375 -14.484375 C 32.4375 -16.671875 30.828125 -18.03125 27.609375 -18.5625 L 15.28125 -20.640625 C 11.257812 -21.316406 8.207031 -22.601562 6.125 -24.5 C 4.050781 -26.394531 3.015625 -28.816406 3.015625 -31.765625 L 3.015625 -35.53125 C 3.015625 -37.894531 3.648438 -39.984375 4.921875 -41.796875 C 6.203125 -43.609375 8.015625 -45.003906 10.359375 -45.984375 C 12.703125 -46.960938 15.414062 -47.453125 18.5 -47.453125 L 26.078125 -47.453125 C 28.984375 -47.453125 31.550781 -46.847656 33.78125 -45.640625 C 36.019531 -44.441406 37.753906 -42.757812 38.984375 -40.59375 C 40.210938 -38.425781 40.828125 -35.910156 40.828125 -33.046875 L 31.703125 -33.046875 C 31.703125 -34.921875 31.1875 -36.425781 30.15625 -37.5625 C 29.132812 -38.707031 27.773438 -39.28125 26.078125 -39.28125 L 18.5 -39.28125 C 16.625 -39.28125 15.113281 -38.875 13.96875 -38.0625 C 12.832031 -37.257812 12.265625 -36.191406 12.265625 -34.859375 L 12.265625 -33.046875 C 12.265625 -30.804688 13.804688 -29.421875 16.890625 -28.890625 L 29.15625 -26.75 C 33.226562 -26.03125 36.332031 -24.765625 38.46875 -22.953125 C 40.613281 -21.148438 41.6875 -18.816406 41.6875 -15.953125 L 41.6875 -11.53125 C 41.6875 -9.164062 41.023438 -7.066406 39.703125 -5.234375 C 38.390625 -3.398438 36.550781 -1.976562 34.1875 -0.96875 C 31.820312 0.03125 29.070312 0.53125 25.9375 0.53125 Z M 18.234375 0.53125 "/></g></g></g></svg>